# xmcd
#
# Track frame offsets:
#       150
#       20504
#       37294
#       52672
#       80834
#       99208
#       119534
#       133716
#       148870
#       168284
#
# Disc length: 2637 seconds
#
# Revision: 0
# Processed by: cddbd v1.4PL0 Copyright (c) Steve Scherf et al.
# Submitted via: WhereIsIt 3.26
#
DISCID=870a4b0a
DTITLE=Bernie Leadon - Michael Georgiades - Natural Progressions - LP
DYEAR=1900
DGENRE=
TTITLE0=Callin' For Your Love
TTITLE1=How Can You Live Without Love
TTITLE2=Breath
TTITLE3=Rotation
TTITLE4=You're The Singer
TTITLE5=Tropical Winter
TTITLE6=As Time Goes By
TTITLE7=The Sparrow
TTITLE8=At Love Again
TTITLE9=Glass Off
EXTD=
EXTT0=
EXTT1=
EXTT2=
EXTT3=
EXTT4=
EXTT5=
EXTT6=
EXTT7=
EXTT8=
EXTT9=
PLAYORDER=
